<mxfile host="65bd71144e">
    <diagram id="ZlPDDMf4zL3D5WSQMFIh" name="file_create">
        <mxGraphModel dx="648" dy="567" grid="1" gridSize="10" guides="1" tooltips="1" connect="1" arrows="1" fold="1" page="1" pageScale="1" pageWidth="3300" pageHeight="4681" math="0" shadow="0">
            <root>
                <mxCell id="0"/>
                <mxCell id="1" parent="0"/>
                <mxCell id="4" value="" style="edgeStyle=none;html=1;" edge="1" parent="1" source="2" target="3">
                    <mxGeometry relative="1" as="geometry"/>
                </mxCell>
                <mxCell id="2" value="开始" style="strokeWidth=2;html=1;shape=mxgraph.flowchart.start_1;whiteSpace=wrap;" vertex="1" parent="1">
                    <mxGeometry x="60" y="10" width="100" height="60" as="geometry"/>
                </mxCell>
                <mxCell id="6" value="" style="edgeStyle=none;html=1;" edge="1" parent="1" source="3" target="5">
                    <mxGeometry relative="1" as="geometry"/>
                </mxCell>
                <mxCell id="3" value="申请inode号" style="whiteSpace=wrap;html=1;strokeWidth=2;" vertex="1" parent="1">
                    <mxGeometry x="50" y="150" width="120" height="60" as="geometry"/>
                </mxCell>
                <mxCell id="8" value="" style="edgeStyle=none;html=1;" edge="1" parent="1" source="5" target="7">
                    <mxGeometry relative="1" as="geometry"/>
                </mxCell>
                <mxCell id="5" value="准备inode对象" style="whiteSpace=wrap;html=1;strokeWidth=2;" vertex="1" parent="1">
                    <mxGeometry x="50" y="290" width="120" height="60" as="geometry"/>
                </mxCell>
                <mxCell id="10" value="" style="edgeStyle=none;html=1;" edge="1" parent="1" source="7" target="9">
                    <mxGeometry relative="1" as="geometry"/>
                </mxCell>
                <mxCell id="7" value="申请file_table空位" style="whiteSpace=wrap;html=1;strokeWidth=2;" vertex="1" parent="1">
                    <mxGeometry x="50" y="430" width="120" height="60" as="geometry"/>
                </mxCell>
                <mxCell id="12" value="" style="edgeStyle=none;html=1;" edge="1" parent="1" source="9" target="11">
                    <mxGeometry relative="1" as="geometry"/>
                </mxCell>
                <mxCell id="9" value="初始化file_table的申请项" style="whiteSpace=wrap;html=1;strokeWidth=2;" vertex="1" parent="1">
                    <mxGeometry x="50" y="570" width="120" height="60" as="geometry"/>
                </mxCell>
                <mxCell id="11" value="准备dir_entry对象" style="whiteSpace=wrap;html=1;strokeWidth=2;" vertex="1" parent="1">
                    <mxGeometry x="50" y="710" width="120" height="60" as="geometry"/>
                </mxCell>
                <mxCell id="15" value="" style="edgeStyle=none;html=1;" edge="1" parent="1" source="13" target="14">
                    <mxGeometry relative="1" as="geometry"/>
                </mxCell>
                <mxCell id="13" value="上传dir_entry" style="whiteSpace=wrap;html=1;" vertex="1" parent="1">
                    <mxGeometry x="300" y="150" width="120" height="60" as="geometry"/>
                </mxCell>
                <mxCell id="17" value="" style="edgeStyle=none;html=1;" edge="1" parent="1" source="14" target="16">
                    <mxGeometry relative="1" as="geometry"/>
                </mxCell>
                <mxCell id="14" value="更新parent_dir-&amp;gt;inode，并上传" style="whiteSpace=wrap;html=1;" vertex="1" parent="1">
                    <mxGeometry x="300" y="290" width="120" height="60" as="geometry"/>
                </mxCell>
                <mxCell id="19" value="" style="edgeStyle=none;html=1;" edge="1" parent="1" source="16" target="18">
                    <mxGeometry relative="1" as="geometry"/>
                </mxCell>
                <mxCell id="16" value="上传新创建inode" style="whiteSpace=wrap;html=1;" vertex="1" parent="1">
                    <mxGeometry x="300" y="430" width="120" height="60" as="geometry"/>
                </mxCell>
                <mxCell id="21" value="" style="edgeStyle=none;html=1;" edge="1" parent="1" source="18" target="20">
                    <mxGeometry relative="1" as="geometry"/>
                </mxCell>
                <mxCell id="18" value="上传inode_bitmap" style="whiteSpace=wrap;html=1;" vertex="1" parent="1">
                    <mxGeometry x="300" y="570" width="120" height="60" as="geometry"/>
                </mxCell>
                <mxCell id="23" value="" style="edgeStyle=none;html=1;" edge="1" parent="1" source="20" target="22">
                    <mxGeometry relative="1" as="geometry"/>
                </mxCell>
                <mxCell id="20" value="将新创建文件的inode添加到open_inodes链表" style="whiteSpace=wrap;html=1;" vertex="1" parent="1">
                    <mxGeometry x="300" y="710" width="120" height="60" as="geometry"/>
                </mxCell>
                <mxCell id="25" value="" style="edgeStyle=none;html=1;" edge="1" parent="1" source="22" target="24">
                    <mxGeometry relative="1" as="geometry"/>
                </mxCell>
                <mxCell id="22" value="安装本进程pcb的fd" style="whiteSpace=wrap;html=1;" vertex="1" parent="1">
                    <mxGeometry x="300" y="850" width="120" height="60" as="geometry"/>
                </mxCell>
                <mxCell id="24" value="结束" style="ellipse;whiteSpace=wrap;html=1;" vertex="1" parent="1">
                    <mxGeometry x="300" y="990" width="120" height="60" as="geometry"/>
                </mxCell>
            </root>
        </mxGraphModel>
    </diagram>
    <diagram id="dn1nfAvm8jPrMQIkeXlx" name="sys_open">
        <mxGraphModel dx="648" dy="567" grid="1" gridSize="10" guides="1" tooltips="1" connect="1" arrows="1" fold="1" page="1" pageScale="1" pageWidth="3300" pageHeight="4681" math="0" shadow="0">
            <root>
                <mxCell id="cZew_Z-4BTDp7vPNZgfj-0"/>
                <mxCell id="cZew_Z-4BTDp7vPNZgfj-1" parent="cZew_Z-4BTDp7vPNZgfj-0"/>
                <mxCell id="cZew_Z-4BTDp7vPNZgfj-7" value="" style="edgeStyle=none;html=1;" edge="1" parent="cZew_Z-4BTDp7vPNZgfj-1" source="cZew_Z-4BTDp7vPNZgfj-2" target="cZew_Z-4BTDp7vPNZgfj-6">
                    <mxGeometry relative="1" as="geometry"/>
                </mxCell>
                <mxCell id="cZew_Z-4BTDp7vPNZgfj-2" value="开始" style="strokeWidth=2;html=1;shape=mxgraph.flowchart.start_1;whiteSpace=wrap;" vertex="1" parent="cZew_Z-4BTDp7vPNZgfj-1">
                    <mxGeometry x="70" y="20" width="100" height="60" as="geometry"/>
                </mxCell>
                <mxCell id="cZew_Z-4BTDp7vPNZgfj-9" value="Y" style="edgeStyle=none;html=1;" edge="1" parent="cZew_Z-4BTDp7vPNZgfj-1" source="cZew_Z-4BTDp7vPNZgfj-6" target="cZew_Z-4BTDp7vPNZgfj-8">
                    <mxGeometry relative="1" as="geometry"/>
                </mxCell>
                <mxCell id="cZew_Z-4BTDp7vPNZgfj-11" value="N" style="edgeStyle=none;html=1;" edge="1" parent="cZew_Z-4BTDp7vPNZgfj-1" source="cZew_Z-4BTDp7vPNZgfj-6" target="cZew_Z-4BTDp7vPNZgfj-10">
                    <mxGeometry relative="1" as="geometry"/>
                </mxCell>
                <mxCell id="cZew_Z-4BTDp7vPNZgfj-6" value="路径不是目录？" style="rhombus;whiteSpace=wrap;html=1;strokeWidth=2;" vertex="1" parent="cZew_Z-4BTDp7vPNZgfj-1">
                    <mxGeometry x="40" y="150" width="160" height="80" as="geometry"/>
                </mxCell>
                <mxCell id="cZew_Z-4BTDp7vPNZgfj-13" value="" style="edgeStyle=none;html=1;" edge="1" parent="cZew_Z-4BTDp7vPNZgfj-1" source="cZew_Z-4BTDp7vPNZgfj-8" target="cZew_Z-4BTDp7vPNZgfj-12">
                    <mxGeometry relative="1" as="geometry"/>
                </mxCell>
                <mxCell id="cZew_Z-4BTDp7vPNZgfj-8" value="search_file" style="whiteSpace=wrap;html=1;strokeWidth=2;" vertex="1" parent="cZew_Z-4BTDp7vPNZgfj-1">
                    <mxGeometry x="60" y="320" width="120" height="60" as="geometry"/>
                </mxCell>
                <mxCell id="cZew_Z-4BTDp7vPNZgfj-10" value="return -1" style="whiteSpace=wrap;html=1;strokeWidth=2;" vertex="1" parent="cZew_Z-4BTDp7vPNZgfj-1">
                    <mxGeometry x="300" y="160" width="120" height="60" as="geometry"/>
                </mxCell>
                <mxCell id="cZew_Z-4BTDp7vPNZgfj-15" value="N" style="edgeStyle=orthogonalEdgeStyle;html=1;entryX=0.5;entryY=1;entryDx=0;entryDy=0;" edge="1" parent="cZew_Z-4BTDp7vPNZgfj-1" source="cZew_Z-4BTDp7vPNZgfj-12" target="cZew_Z-4BTDp7vPNZgfj-10">
                    <mxGeometry relative="1" as="geometry"/>
                </mxCell>
                <mxCell id="cZew_Z-4BTDp7vPNZgfj-12" value="把pathname的各层路径&lt;br&gt;都访问到了？" style="rhombus;whiteSpace=wrap;html=1;strokeWidth=2;" vertex="1" parent="cZew_Z-4BTDp7vPNZgfj-1">
                    <mxGeometry x="20" y="450" width="200" height="80" as="geometry"/>
                </mxCell>
            </root>
        </mxGraphModel>
    </diagram>
</mxfile>